<?xml version="1.0" standalone="no"?>
<!DOCTYPE svg PUBLIC "-//W3C//DTD SVG 20010904//EN"
 "http://www.w3.org/TR/2001/REC-SVG-20010904/DTD/svg10.dtd">
<svg version="1.0" xmlns="http://www.w3.org/2000/svg"
 width="288.000000pt" height="288.000000pt" viewBox="0 0 288.000000 288.000000"
 preserveAspectRatio="xMidYMid meet">
<metadata>
Created by potrace 1.11, written by Peter Selinger 2001-2013
</metadata>
<g transform="translate(0.000000,288.000000) scale(0.100000,-0.100000)"
fill="#000000" stroke="none">
<path d="M227 2803 c-4 -3 -7 -620 -7 -1370 l0 -1363 405 0 406 0 -3 275 c-2
151 -1 275 2 275 3 0 129 -124 280 -275 l275 -275 560 0 c308 -1 564 -1 570 0
5 0 -297 307 -673 683 l-682 682 680 680 c374 374 680 683 680 687 0 5 -255 8
-568 8 l-567 0 -275 -275 c-151 -151 -277 -275 -280 -275 -3 0 -5 123 -5 272
l0 273 -396 3 c-217 1 -398 -1 -402 -5z"/>
</g>
</svg>
